<?xml version="1.0" encoding="UTF-8" standalone="no"?>
<svg
   version="1.1"
   width="450"
   height="450"
   id="svg21777"
   viewBox="0 0 450 450"
   sodipodi:docname="MarcaIFSul.svg"
   inkscape:version="1.1 (c68e22c387, 2021-05-23)"
   xmlns:inkscape="http://www.inkscape.org/namespaces/inkscape"
   xmlns:sodipodi="http://sodipodi.sourceforge.net/DTD/sodipodi-0.dtd"
   xmlns="http://www.w3.org/2000/svg"
   xmlns:svg="http://www.w3.org/2000/svg">
  <defs
     id="defs21781" />
  <sodipodi:namedview
     id="namedview21779"
     pagecolor="#505050"
     bordercolor="#eeeeee"
     borderopacity="1"
     inkscape:pageshadow="0"
     inkscape:pageopacity="0"
     inkscape:pagecheckerboard="0"
     showgrid="false"
     height="449px"
     inkscape:zoom="1.3640747"
     inkscape:cx="174.8438"
     inkscape:cy="93.469956"
     inkscape:window-width="1920"
     inkscape:window-height="1001"
     inkscape:window-x="-9"
     inkscape:window-y="-9"
     inkscape:window-maximized="1"
     inkscape:current-layer="svg21777" />
  <g
     id="Layer1000"
     transform="matrix(4.0005161,0,0,4.0005161,-2222.6944,-608.61054)">
    <g
       id="Layer1001">
      <path
         d="m 568.5704,254.1043 c 0,0.746 -0.2719,1.328 -0.8136,1.7461 -0.5422,0.417 -1.2787,0.6259 -2.2084,0.6259 -1.0066,0 -1.7816,-0.1298 -2.3242,-0.3886 v -0.9511 c 0.3493,0.1474 0.728,0.2637 1.1387,0.3476 0.4108,0.085 0.8184,0.1278 1.2212,0.1278 0.6573,0 1.1534,-0.125 1.4868,-0.373 0.3336,-0.2509 0.4994,-0.5967 0.4994,-1.0429 0,-0.2931 -0.0589,-0.5343 -0.176,-0.7206 -0.1188,-0.1876 -0.3166,-0.3614 -0.5927,-0.5195 -0.2781,-0.1594 -0.6991,-0.3391 -1.2643,-0.5392 -0.7906,-0.2823 -1.355,-0.6162 -1.6943,-1.0029 -0.339,-0.3878 -0.5082,-0.8926 -0.5082,-1.5148 0,-0.6543 0.2463,-1.1727 0.7381,-1.5594 0.4916,-0.3877 1.1427,-0.5811 1.9525,-0.5811 0.8439,0 1.6212,0.1554 2.3301,0.4649 l -0.3084,0.8575 c -0.7007,-0.2931 -1.3825,-0.4414 -2.0455,-0.4414 -0.5224,0 -0.9306,0.1131 -1.2257,0.3368 -0.2942,0.2256 -0.4413,0.536 -0.4413,0.9346 0,0.2939 0.0538,0.534 0.1627,0.7225 0.1083,0.1857 0.2914,0.3595 0.5482,0.5156 0.2582,0.1565 0.652,0.3292 1.1837,0.5196 0.8907,0.3164 1.503,0.6574 1.8383,1.0205 0.3345,0.3623 0.5029,0.8351 0.5029,1.4151 z"
         style="fill:#281c15;fill-rule:evenodd"
         id="path21217" />
      <path
         d="m 571.068,250.0028 v 4.125 c 0,0.5165 0.1182,0.9042 0.3549,1.1602 0.2364,0.2537 0.6066,0.3827 1.1089,0.3827 0.667,0 1.154,-0.1817 1.4624,-0.546 0.3073,-0.3642 0.462,-0.9569 0.462,-1.7801 v -3.3418 h 0.9649 v 6.3573 h -0.7971 l -0.1394,-0.8535 h -0.0525 c -0.1967,0.3146 -0.4711,0.5539 -0.8217,0.7197 -0.3501,0.1672 -0.7509,0.25 -1.2002,0.25 -0.7747,0 -1.355,-0.1845 -1.7396,-0.5508 -0.3853,-0.3671 -0.5777,-0.9561 -0.5777,-1.7626 v -4.1601 z"
         style="fill:#281c15;fill-rule:evenodd"
         id="path21219" />
      <path
         d="m 578.4304,256.3601 h -0.9649 v -9.0244 h 0.9649 z"
         style="fill:#281c15;fill-rule:evenodd"
         id="path21221" />
      <path
         d="m 579.941,253.6161 v -0.881 h 2.8525 v 0.881 z"
         style="fill:#281c15;fill-rule:evenodd"
         id="path21223" />
      <path
         d="m 587.209,249.8866 c 0.2835,0 0.5372,0.0244 0.7614,0.0703 l -0.1332,0.8935 c -0.2645,-0.0587 -0.4964,-0.0879 -0.6973,-0.0879 -0.5157,0 -0.9562,0.2089 -1.3224,0.627 -0.3662,0.4179 -0.5482,0.9374 -0.5482,1.5605 v 3.4101 h -0.9649 v -6.3573 h 0.7954 l 0.1102,1.1787 h 0.0465 c 0.2367,-0.4142 0.521,-0.7325 0.8544,-0.9581 0.3336,-0.2245 0.6999,-0.3368 1.0981,-0.3368 z"
         style="fill:#281c15;fill-rule:evenodd"
         id="path21225" />
      <path
         d="m 589.0807,248.2802 c 0,-0.2208 0.0547,-0.381 0.1627,-0.4844 0.1092,-0.1027 0.2447,-0.1523 0.4071,-0.1523 0.1548,0 0.2883,0.0516 0.4005,0.1562 0.1129,0.1035 0.1684,0.2645 0.1684,0.4805 0,0.2166 -0.0555,0.3779 -0.1684,0.4844 -0.1122,0.1072 -0.2457,0.1599 -0.4005,0.1599 -0.1624,0 -0.2979,-0.0527 -0.4071,-0.1599 -0.108,-0.1065 -0.1627,-0.2678 -0.1627,-0.4844 z m 1.0463,8.0799 v 0 h -0.9643 v -6.3573 h 0.9643 z"
         style="fill:#281c15;fill-rule:evenodd"
         id="path21227" />
      <path
         d="m 597.668,253.1756 c 0,1.0372 -0.2616,1.8457 -0.7846,2.4268 -0.5224,0.5831 -1.2444,0.8739 -2.1665,0.8739 -0.5698,0 -1.0752,-0.1338 -1.5166,-0.4003 -0.4413,-0.2667 -0.7826,-0.6494 -1.023,-1.1474 -0.2395,-0.5 -0.3603,-1.084 -0.3603,-1.753 0,-1.036 0.2594,-1.8428 0.7793,-2.4219 0.5184,-0.578 1.2387,-0.8671 2.1605,-0.8671 0.8907,0 1.5996,0.2959 2.124,0.8875 0.5247,0.5919 0.7872,1.3927 0.7872,2.4015 z m -4.8509,0 v 0 c 0,0.8124 0.1624,1.4307 0.4878,1.8564 0.3257,0.4247 0.8037,0.6387 1.4349,0.6387 0.6316,0 1.1104,-0.2109 1.438,-0.6358 0.3277,-0.4227 0.4919,-1.0429 0.4919,-1.8593 0,-0.8076 -0.1642,-1.421 -0.4919,-1.8419 -0.3276,-0.419 -0.8098,-0.6279 -1.4496,-0.6279 -0.6313,0 -1.1081,0.2072 -1.4287,0.6202 -0.3223,0.413 -0.4824,1.0293 -0.4824,1.8496 z"
         style="fill:#281c15;fill-rule:evenodd"
         id="path21229" />
      <path
         d="m 598.8243,253.6161 v -0.881 h 2.8522 v 0.881 z"
         style="fill:#281c15;fill-rule:evenodd"
         id="path21231" />
      <path
         d="m 608.4006,250.0028 v 0.6092 l -1.1798,0.1389 c 0.108,0.1355 0.2046,0.3124 0.29,0.5312 0.0856,0.2177 0.1284,0.4657 0.1284,0.7393 0,0.623 -0.2138,1.1191 -0.639,1.491 -0.4269,0.3713 -1.0116,0.5567 -1.7543,0.5567 -0.1899,0 -0.3688,-0.0156 -0.5349,-0.0459 -0.4105,0.216 -0.6166,0.4893 -0.6166,0.8175 0,0.1746 0.0718,0.3027 0.2149,0.3867 0.1434,0.0819 0.3901,0.1241 0.7381,0.1241 h 1.128 c 0.6893,0 1.2183,0.1443 1.5879,0.4354 0.3711,0.2891 0.555,0.7101 0.555,1.2628 0,0.705 -0.2814,1.2411 -0.8469,1.6113 -0.567,0.369 -1.3916,0.5527 -2.4761,0.5527 -0.8325,0 -1.4746,-0.1542 -1.9264,-0.464 -0.4516,-0.3096 -0.6767,-0.7469 -0.6767,-1.3105 0,-0.3875 0.1239,-0.7217 0.3719,-1.0037 0.2484,-0.2824 0.5965,-0.4737 1.0457,-0.5735 -0.1627,-0.074 -0.2996,-0.1873 -0.4098,-0.3427 -0.1103,-0.1542 -0.1645,-0.3339 -0.1645,-0.54 0,-0.2324 0.061,-0.4345 0.1851,-0.6074 0.1239,-0.1758 0.3198,-0.3439 0.5874,-0.506 -0.3303,-0.1347 -0.5978,-0.366 -0.8048,-0.6903 -0.208,-0.3242 -0.3115,-0.6942 -0.3115,-1.1134 0,-0.6962 0.2095,-1.2322 0.6279,-1.6092 0.4189,-0.3779 1.0102,-0.5664 1.7784,-0.5664 0.332,0 0.6327,0.0391 0.8997,0.1162 z m -5.0786,7.4248 v 0 c 0,0.3438 0.1454,0.6055 0.4354,0.7832 0.2917,0.1766 0.7075,0.2665 1.2495,0.2665 0.8102,0 1.4097,-0.1211 1.7983,-0.3623 0.3892,-0.2412 0.5839,-0.5692 0.5839,-0.9833 0,-0.3439 -0.1068,-0.582 -0.3197,-0.7169 -0.2129,-0.1327 -0.6131,-0.2001 -1.2025,-0.2001 h -1.1559 c -0.438,0 -0.7793,0.1043 -1.0228,0.3143 -0.2437,0.2092 -0.3662,0.5069 -0.3662,0.8986 z m 0.5227,-5.3878 v 0 c 0,0.4445 0.1256,0.7804 0.3782,1.0088 0.2514,0.2285 0.602,0.3428 1.051,0.3428 0.9411,0 1.4123,-0.457 1.4123,-1.37 0,-0.9553 -0.4771,-1.4318 -1.4293,-1.4318 -0.4527,0 -0.8022,0.121 -1.0454,0.3642 -0.2446,0.2433 -0.3668,0.6055 -0.3668,1.086 z"
         style="fill:#281c15;fill-rule:evenodd"
         id="path21233" />
      <path
         d="m 612.6114,249.8866 c 0.2832,0 0.5372,0.0244 0.7611,0.0703 l -0.1332,0.8935 c -0.2636,-0.0587 -0.4961,-0.0879 -0.697,-0.0879 -0.5157,0 -0.9562,0.2089 -1.3224,0.627 -0.3662,0.4179 -0.5482,0.9374 -0.5482,1.5605 v 3.4101 h -0.9649 v -6.3573 h 0.7954 l 0.1102,1.1787 h 0.0471 c 0.2361,-0.4142 0.521,-0.7325 0.8538,-0.9581 0.3336,-0.2245 0.6998,-0.3368 1.0981,-0.3368 z"
         style="fill:#281c15;fill-rule:evenodd"
         id="path21235" />
      <path
         d="m 618.4811,256.3601 -0.1925,-0.9051 h -0.0462 c -0.3174,0.3994 -0.6338,0.669 -0.9501,0.8096 -0.3152,0.1414 -0.7093,0.2117 -1.1824,0.2117 -0.6312,0 -1.1265,-0.163 -1.4848,-0.4873 -0.3582,-0.3251 -0.5371,-0.7869 -0.5371,-1.3847 0,-1.2852 1.029,-1.957 3.0861,-2.0194 l 1.0805,-0.0363 v -0.3934 c 0,-0.4981 -0.108,-0.8672 -0.3228,-1.1055 -0.2155,-0.2365 -0.559,-0.3564 -1.0313,-0.3564 -0.5312,0 -1.1307,0.163 -1.8008,0.4882 l -0.2968,-0.7373 c 0.3141,-0.171 0.6571,-0.3039 1.0318,-0.4003 0.373,-0.0958 0.7483,-0.1448 1.1239,-0.1448 0.7589,0 1.3221,0.1672 1.6875,0.504 0.3662,0.337 0.5493,0.8759 0.5493,1.6183 v 4.3387 z m -2.1787,-0.6778 v 0 c 0.5995,0 1.0718,-0.165 1.4139,-0.4941 0.3439,-0.3271 0.5142,-0.788 0.5142,-1.3799 v -0.574 l -0.9632,0.0408 c -0.7682,0.0264 -1.3209,0.1457 -1.6602,0.3566 -0.3379,0.2098 -0.5074,0.5372 -0.5074,0.9834 0,0.3486 0.1046,0.6123 0.3163,0.794 0.2106,0.1825 0.5066,0.2732 0.8864,0.2732 z"
         style="fill:#281c15;fill-rule:evenodd"
         id="path21237" />
      <path
         d="m 625.5405,256.3601 v -4.1114 c 0,-0.5193 -0.1179,-0.9062 -0.3549,-1.1599 -0.2353,-0.256 -0.6049,-0.383 -1.1092,-0.383 -0.6667,0 -1.1548,0.1797 -1.4641,0.5392 -0.3095,0.3594 -0.4643,0.953 -0.4643,1.7793 v 3.3358 h -0.9646 v -6.3573 h 0.7835 l 0.1573,0.87 h 0.0462 c 0.1984,-0.3124 0.4748,-0.5556 0.8308,-0.7265 0.3564,-0.173 0.7532,-0.2597 1.1914,-0.2597 0.7671,0 1.3445,0.1854 1.7314,0.5556 0.3873,0.3682 0.5814,0.9589 0.5814,1.7716 v 4.1463 z"
         style="fill:#281c15;fill-rule:evenodd"
         id="path21239" />
      <path
         d="m 632.8213,255.5066 h -0.0527 c -0.4456,0.6465 -1.1123,0.9697 -1.999,0.9697 -0.8325,0 -1.4808,-0.284 -1.9429,-0.8535 -0.4632,-0.5672 -0.6953,-1.3759 -0.6953,-2.4228 0,-1.0488 0.2336,-1.8632 0.6973,-2.4415 0.4655,-0.5799 1.1118,-0.8719 1.9409,-0.8719 0.8637,0 1.5259,0.3144 1.9868,0.9405 h 0.0762 l -0.0411,-0.4583 -0.0229,-0.4471 v -2.586 h 0.964 v 9.0244 h -0.7843 z m -1.9295,0.1641 v 0 c 0.6587,0 1.1352,-0.1797 1.432,-0.5372 0.296,-0.3574 0.4448,-0.9346 0.4448,-1.7314 V 253.2 c 0,-0.9014 -0.15,-1.5449 -0.4502,-1.9298 -0.3007,-0.3847 -0.7792,-0.5769 -1.4383,-0.5769 -0.5655,0 -0.9986,0.2197 -1.2994,0.6591 -0.2987,0.4394 -0.4493,1.0576 -0.4493,1.8592 0,0.8116 0.1492,1.4239 0.4474,1.838 0.2979,0.4142 0.7358,0.6211 1.313,0.6211 z"
         style="fill:#281c15;fill-rule:evenodd"
         id="path21241" />
      <path
         d="m 638.4679,256.4763 c -0.9411,0 -1.684,-0.286 -2.2274,-0.8575 -0.5454,-0.5731 -0.8176,-1.368 -0.8176,-2.3845 0,-1.0244 0.2532,-1.8391 0.7594,-2.4426 0.5049,-0.6024 1.1841,-0.9051 2.0365,-0.9051 0.7973,0 1.4286,0.2625 1.8941,0.7869 0.4643,0.5236 0.6964,1.2161 0.6964,2.0735 v 0.6084 h -4.3857 c 0.019,0.7469 0.2078,1.3135 0.5663,1.7002 0.3575,0.3866 0.8623,0.5791 1.5132,0.5791 0.686,0 1.3632,-0.1426 2.0333,-0.4278 v 0.8575 c -0.3405,0.1474 -0.6633,0.2529 -0.9675,0.3164 -0.3036,0.0632 -0.671,0.0955 -1.101,0.0955 z m -0.2616,-5.783 v 0 c -0.5108,0 -0.9182,0.167 -1.2232,0.4989 -0.3038,0.3331 -0.4824,0.7929 -0.5371,1.3808 h 3.329 c 0,-0.6063 -0.1352,-1.0732 -0.4062,-1.3944 -0.2705,-0.3243 -0.6588,-0.4853 -1.1625,-0.4853 z"
         style="fill:#281c15;fill-rule:evenodd"
         id="path21243" />
      <path
         d="m 646.8123,256.3601 v -4.1114 c 0,-0.5193 -0.1188,-0.9062 -0.3552,-1.1599 -0.2353,-0.256 -0.6052,-0.383 -1.1092,-0.383 -0.6667,0 -1.1548,0.1797 -1.4644,0.5392 -0.3095,0.3594 -0.4646,0.953 -0.4646,1.7793 v 3.3358 h -0.9646 v -6.3573 h 0.784 l 0.1574,0.87 h 0.0465 c 0.1975,-0.3124 0.4745,-0.5556 0.8302,-0.7265 0.3561,-0.173 0.7538,-0.2597 1.1917,-0.2597 0.7665,0 1.3448,0.1854 1.7314,0.5556 0.3867,0.3682 0.5814,0.9589 0.5814,1.7716 v 4.1463 z"
         style="fill:#281c15;fill-rule:evenodd"
         id="path21245" />
      <path
         d="m 653.8649,254.6267 c 0,0.591 -0.2209,1.048 -0.6622,1.3683 -0.4414,0.3211 -1.0616,0.4813 -1.859,0.4813 -0.8441,0 -1.5026,-0.1338 -1.9749,-0.4003 v -0.8937 c 0.3056,0.1553 0.6333,0.2775 0.9839,0.3654 0.3507,0.0887 0.6886,0.1346 1.0137,0.1346 0.5037,0 0.8909,-0.0808 1.1631,-0.2412 0.2704,-0.1599 0.4056,-0.4051 0.4056,-0.7333 0,-0.2472 -0.1069,-0.459 -0.3217,-0.6356 -0.2149,-0.176 -0.6347,-0.3829 -1.2583,-0.6233 -0.5928,-0.2205 -1.0137,-0.413 -1.2643,-0.5769 -0.2489,-0.1652 -0.4354,-0.3517 -0.5576,-0.5598 -0.1216,-0.2089 -0.1831,-0.4578 -0.1831,-0.7489 0,-0.5185 0.2121,-0.9267 0.6339,-1.2266 0.4223,-0.2999 1.0014,-0.4501 1.7373,-0.4501 0.686,0 1.3564,0.1397 2.0103,0.419 l -0.3424,0.7832 c -0.6389,-0.2637 -1.218,-0.3955 -1.7373,-0.3955 -0.4576,0 -0.8022,0.0712 -1.0341,0.2146 -0.2333,0.1437 -0.3492,0.341 -0.3492,0.5919 0,0.1709 0.0445,0.3155 0.1309,0.4345 0.0873,0.1211 0.2276,0.2345 0.421,0.3428 0.1941,0.1085 0.5655,0.2647 1.1162,0.4699 0.7555,0.2753 1.2651,0.5508 1.5313,0.83 0.2651,0.2784 0.3969,0.629 0.3969,1.0497 z"
         style="fill:#281c15;fill-rule:evenodd"
         id="path21247" />
      <path
         d="m 658.1236,256.4763 c -0.9408,0 -1.684,-0.286 -2.228,-0.8575 -0.5448,-0.5731 -0.8169,-1.368 -0.8169,-2.3845 0,-1.0244 0.2528,-1.8391 0.7594,-2.4426 0.5048,-0.6024 1.184,-0.9051 2.0361,-0.9051 0.7979,0 1.4292,0.2625 1.8944,0.7869 0.4646,0.5236 0.6965,1.2161 0.6965,2.0735 v 0.6084 h -4.3858 c 0.019,0.7469 0.2081,1.3135 0.5664,1.7002 0.3574,0.3866 0.8623,0.5791 1.5131,0.5791 0.686,0 1.3629,-0.1426 2.0333,-0.4278 v 0.8575 c -0.3405,0.1474 -0.6636,0.2529 -0.9675,0.3164 -0.3036,0.0632 -0.6707,0.0955 -1.101,0.0955 z m -0.2616,-5.783 v 0 c -0.5108,0 -0.9184,0.167 -1.2231,0.4989 -0.3039,0.3331 -0.4825,0.7929 -0.5372,1.3808 h 3.3293 c 0,-0.6063 -0.1355,-1.0732 -0.4065,-1.3944 -0.2704,-0.3243 -0.6588,-0.4853 -1.1625,-0.4853 z"
         style="fill:#281c15;fill-rule:evenodd"
         id="path21249" />
    </g>
    <g
       id="Layer1002">
      <path
         d="m 617.8946,168.2987 c 0,0.6083 -0.4918,1.0996 -1.099,1.0996 h -9.0978 c -0.6074,0 -1.0975,-0.4913 -1.0975,-1.0996 v -9.0967 c 0,-0.6074 0.4901,-1.1007 1.0975,-1.1007 h 9.0978 c 0.6072,0 1.099,0.4933 1.099,1.1007 z"
         style="fill:#34972f;fill-rule:evenodd"
         id="path21252" />
      <path
         d="m 631.4485,168.2987 c 0,0.6083 -0.4913,1.0996 -1.0979,1.0996 h -9.0975 c -0.6086,0 -1.1001,-0.4913 -1.1001,-1.0996 v -9.0967 c 0,-0.6074 0.4915,-1.1007 1.1001,-1.1007 h 9.0975 c 0.6066,0 1.0979,0.4933 1.0979,1.1007 z"
         style="fill:#34972f;fill-rule:evenodd"
         id="path21254" />
      <path
         d="m 631.4485,195.407 c 0,0.6066 -0.4913,1.0987 -1.0979,1.0987 h -9.0975 c -0.6086,0 -1.1001,-0.4921 -1.1001,-1.0987 v -9.0956 c 0,-0.6094 0.4915,-1.1006 1.1001,-1.1006 h 9.0975 c 0.6066,0 1.0979,0.4912 1.0979,1.1006 z"
         style="fill:#34972f;fill-rule:evenodd"
         id="path21256" />
      <path
         d="m 604.3394,181.8426 c 0,0.6095 -0.4916,1.1016 -1.0982,1.1016 h -9.0961 c -0.6083,0 -1.099,-0.4921 -1.099,-1.1016 v -9.0946 c 0,-0.6084 0.4907,-1.0999 1.099,-1.0999 h 9.0961 c 0.6066,0 1.0982,0.4915 1.0982,1.0999 z"
         style="fill:#34972f;fill-rule:evenodd"
         id="path21258" />
      <path
         d="m 617.8946,181.8426 c 0,0.6095 -0.4918,1.1016 -1.099,1.1016 h -9.0978 c -0.6074,0 -1.0975,-0.4921 -1.0975,-1.1016 v -9.0946 c 0,-0.6084 0.4901,-1.0999 1.0975,-1.0999 h 9.0978 c 0.6072,0 1.099,0.4915 1.099,1.0999 z"
         style="fill:#34972f;fill-rule:evenodd"
         id="path21260" />
      <path
         d="m 604.3394,195.407 c 0,0.6066 -0.4916,1.0987 -1.0982,1.0987 h -9.0961 c -0.6083,0 -1.099,-0.4921 -1.099,-1.0987 v -9.0956 c 0,-0.6094 0.4907,-1.1006 1.099,-1.1006 h 9.0961 c 0.6066,0 1.0982,0.4912 1.0982,1.1006 z"
         style="fill:#34972f;fill-rule:evenodd"
         id="path21262" />
      <path
         d="m 617.8946,195.407 c 0,0.6066 -0.4918,1.0987 -1.099,1.0987 h -9.0978 c -0.6074,0 -1.0975,-0.4921 -1.0975,-1.0987 v -9.0956 c 0,-0.6094 0.4901,-1.1006 1.0975,-1.1006 h 9.0978 c 0.6072,0 1.099,0.4912 1.099,1.1006 z"
         style="fill:#34972f;fill-rule:evenodd"
         id="path21264" />
      <path
         d="m 604.3394,208.9733 c 0,0.6086 -0.4916,1.0998 -1.0982,1.0998 h -9.0961 c -0.6083,0 -1.099,-0.4912 -1.099,-1.0998 v -9.0935 c 0,-0.6067 0.4907,-1.1007 1.099,-1.1007 h 9.0961 c 0.6066,0 1.0982,0.494 1.0982,1.1007 z"
         style="fill:#34972f;fill-rule:evenodd"
         id="path21266" />
      <path
         d="m 617.8946,208.9733 c 0,0.6086 -0.4918,1.0998 -1.099,1.0998 h -9.0978 c -0.6074,0 -1.0975,-0.4912 -1.0975,-1.0998 v -9.0935 c 0,-0.6067 0.4901,-1.1007 1.0975,-1.1007 h 9.0978 c 0.6072,0 1.099,0.494 1.099,1.1007 z"
         style="fill:#34972f;fill-rule:evenodd"
         id="path21268" />
      <path
         d="m 604.9049,163.7508 c 0,3.4305 -2.7791,6.211 -6.2119,6.211 -3.4307,0 -6.211,-2.7805 -6.211,-6.211 0,-3.4316 2.7803,-6.213 6.211,-6.213 3.4328,0 6.2119,2.7814 6.2119,6.213 z"
         style="fill:#c80c0f;fill-rule:evenodd"
         id="path21270" />
    </g>
    <g
       id="Layer1003">
      <path
         d="m 571.3336,229.2138 v -11.2374 h 2.3868 v 11.2374 z"
         style="fill:#281c15;fill-rule:evenodd"
         id="path21273" />
      <path
         d="m 586.5406,229.2138 h -3.0348 l -4.8962,-8.5011 h -0.0695 c 0.0978,1.5018 0.1466,2.5724 0.1466,3.2128 v 5.2883 h -2.1334 v -11.2374 h 3.011 l 4.8894,8.4161 h 0.0536 c -0.0774,-1.4601 -0.1145,-2.4922 -0.1145,-3.0969 v -5.3192 h 2.1478 z"
         style="fill:#281c15;fill-rule:evenodd"
         id="path21275" />
      <path
         d="m 596.0191,226.0926 c 0,1.0156 -0.3662,1.8153 -1.0981,2.3984 -0.7314,0.5839 -1.7484,0.877 -3.0524,0.877 -1.2016,0 -2.264,-0.2256 -3.1878,-0.6777 v -2.2131 c 0.7597,0.3379 1.4028,0.5772 1.9284,0.7149 0.5267,0.1389 1.0083,0.2081 1.4437,0.2081 0.5244,0 0.9252,-0.1006 1.205,-0.2999 0.2798,-0.201 0.4201,-0.4961 0.4201,-0.8923 0,-0.22 -0.0615,-0.4162 -0.1846,-0.5871 -0.1233,-0.1718 -0.3038,-0.3368 -0.5425,-0.4961 -0.2393,-0.1593 -0.7263,-0.4121 -1.4601,-0.7608 -0.6869,-0.3223 -1.2036,-0.6327 -1.5475,-0.9295 -0.3435,-0.299 -0.6185,-0.6446 -0.8234,-1.0383 -0.2061,-0.3943 -0.3082,-0.8555 -0.3082,-1.3836 0,-0.9941 0.3379,-1.7756 1.0126,-2.3448 0.6743,-0.5684 1.6075,-0.8527 2.7989,-0.8527 0.5845,0 1.1429,0.0686 1.6744,0.2081 0.5315,0.1378 1.0868,0.3322 1.6668,0.5831 l -0.7699,1.8524 c -0.5995,-0.2449 -1.0973,-0.417 -1.4893,-0.5156 -0.3926,-0.0967 -0.7798,-0.1454 -1.1597,-0.1454 -0.4515,0 -0.7974,0.1043 -1.0386,0.3155 -0.2412,0.2097 -0.3617,0.4833 -0.3617,0.8223 0,0.2098 0.0488,0.3935 0.1454,0.5496 0.0978,0.1562 0.254,0.3068 0.4663,0.4542 0.2129,0.1454 0.7169,0.4081 1.5132,0.7871 1.0513,0.5029 1.773,1.0058 2.1631,1.5106 0.39,0.506 0.5859,1.1231 0.5859,1.8556 z"
         style="fill:#281c15;fill-rule:evenodd"
         id="path21277" />
      <path
         d="m 602.4019,229.2138 h -2.3871 v -9.254 h -3.0571 v -1.9834 h 8.5013 v 1.9834 h -3.0571 z"
         style="fill:#281c15;fill-rule:evenodd"
         id="path21279" />
      <path
         d="m 607.1904,229.2138 v -11.2374 h 2.3874 v 11.2374 z"
         style="fill:#281c15;fill-rule:evenodd"
         id="path21281" />
      <path
         d="m 616.7545,229.2138 h -2.387 v -9.254 h -3.0569 v -1.9834 h 8.5011 v 1.9834 h -3.0572 z"
         style="fill:#281c15;fill-rule:evenodd"
         id="path21283" />
      <path
         d="m 630.7067,217.9764 v 7.2715 c 0,0.8299 -0.1866,1.5576 -0.5587,2.1815 -0.372,0.6262 -0.91,1.1066 -1.6132,1.4386 -0.703,0.3331 -1.5347,0.5 -2.4951,0.5 -1.4474,0 -2.5713,-0.3702 -3.3721,-1.1114 -0.8013,-0.7402 -1.2007,-1.753 -1.2007,-3.0399 v -7.2403 h 2.3794 v 6.88 c 0,0.8651 0.1737,1.5009 0.5229,1.906 0.3496,0.4034 0.9264,0.6055 1.7329,0.6055 0.7792,0 1.3461,-0.2021 1.6979,-0.6092 0.3515,-0.4073 0.5264,-1.0471 0.5264,-1.9182 v -6.8641 z"
         style="fill:#281c15;fill-rule:evenodd"
         id="path21285" />
      <path
         d="m 637.8055,229.2138 h -2.3874 v -9.254 h -3.0571 v -1.9834 h 8.5013 v 1.9834 h -3.0568 z"
         style="fill:#281c15;fill-rule:evenodd"
         id="path21287" />
      <path
         d="m 652.8132,223.58 c 0,1.8603 -0.462,3.2898 -1.3858,4.2888 -0.9253,0.9992 -2.2496,1.4992 -3.9731,1.4992 -1.7246,0 -3.0489,-0.5 -3.9742,-1.4992 -0.9238,-0.999 -1.3858,-2.4344 -1.3858,-4.3056 0,-1.87 0.4629,-3.2978 1.3904,-4.284 0.9261,-0.9864 2.2552,-1.4797 3.9841,-1.4797 1.7297,0 3.0529,0.4961 3.9699,1.4902 0.9159,0.9953 1.3745,2.4239 1.3745,4.2903 z m -8.2159,0 v 0 c 0,1.2557 0.2392,2.2002 0.7157,2.8357 0.4782,0.6358 1.1911,0.9522 2.1413,0.9522 1.9032,0 2.8559,-1.2626 2.8559,-3.7879 0,-2.5322 -0.9468,-3.7979 -2.8414,-3.7979 -0.9496,0 -1.6654,0.3192 -2.1478,0.9578 -0.4825,0.637 -0.7237,1.5832 -0.7237,2.8401 z"
         style="fill:#281c15;fill-rule:evenodd"
         id="path21289" />
    </g>
    <g
       id="Layer1004">
      <path
         d="M 581.5188,242.7215 H 579.17 v -11.2394 h 6.4522 v 1.9522 h -4.1034 v 2.8996 h 3.8194 v 1.9431 h -3.8194 z"
         style="fill:#281c15;fill-rule:evenodd"
         id="path21292" />
      <path
         d="m 594.3078,242.7215 h -6.4825 v -11.2394 h 6.4825 v 1.9522 h -4.0958 v 2.4687 h 3.8115 v 1.9522 h -3.8115 v 2.8976 h 4.0958 z"
         style="fill:#281c15;fill-rule:evenodd"
         id="path21294" />
      <path
         d="m 605.9962,236.9938 c 0,1.8499 -0.527,3.2678 -1.5814,4.2511 -1.0562,0.9833 -2.5799,1.4766 -4.5703,1.4766 h -3.1882 v -11.2394 h 3.5348 c 1.8375,0 3.2641,0.4856 4.2803,1.4542 1.0171,0.9669 1.5248,2.3213 1.5248,4.0575 z m -2.4795,0.0618 v 0 c 0,-2.4143 -1.0669,-3.6213 -3.2025,-3.6213 h -1.2711 v 7.3185 h 1.0239 c 2.2997,0 3.4497,-1.2325 3.4497,-3.6972 z"
         style="fill:#281c15;fill-rule:evenodd"
         id="path21296" />
      <path
         d="m 614.8125,242.7215 h -6.4828 v -11.2394 h 6.4828 v 1.9522 h -4.096 v 2.4687 h 3.8114 v 1.9522 h -3.8114 v 2.8976 h 4.096 z"
         style="fill:#281c15;fill-rule:evenodd"
         id="path21298" />
      <path
         d="m 619.5475,238.4091 v 4.3124 h -2.3868 v -11.2394 h 3.2803 c 1.5304,0 2.6612,0.2795 3.3962,0.8351 0.7339,0.5556 1.0998,1.4003 1.0998,2.5333 0,0.6599 -0.182,1.2489 -0.5456,1.7637 -0.3646,0.5134 -0.8811,0.9187 -1.5475,1.2098 1.6937,2.5263 2.7972,4.1593 3.3106,4.8975 h -2.6487 l -2.6872,-4.3124 z m 0,-1.9375 v 0 h 0.7705 c 0.7546,0 1.3121,-0.1261 1.6704,-0.377 0.3595,-0.25 0.5392,-0.6457 0.5392,-1.1826 0,-0.5343 -0.1831,-0.9133 -0.5508,-1.1378 -0.3662,-0.2256 -0.9351,-0.3399 -1.7056,-0.3399 h -0.7237 z"
         style="fill:#281c15;fill-rule:evenodd"
         id="path21300" />
      <path
         d="m 634.4626,242.7215 -0.8158,-2.6757 h -4.104 l -0.817,2.6757 h -2.5713 l 3.973,-11.2842 h 2.9186 l 3.9886,11.2842 z m -1.3859,-4.6738 v 0 c -0.7543,-2.4239 -1.1801,-3.795 -1.2744,-4.1122 -0.0956,-0.3184 -0.1625,-0.5695 -0.2036,-0.7532 -0.1695,0.6554 -0.6553,2.2777 -1.455,4.8654 z"
         style="fill:#281c15;fill-rule:evenodd"
         id="path21302" />
      <path
         d="m 638.4503,242.7215 v -11.2394 h 2.3868 v 9.2707 h 4.5658 v 1.9687 z"
         style="fill:#281c15;fill-rule:evenodd"
         id="path21304" />
    </g>
  </g>
</svg>
